Tale about best friends who fly home-built, high-tech planes to deliver Mexican manufactured crystal meth throughout rural California in order to fund their Hollywood, rock-star lifestyle. That is until a beautiful young woman who is not what she pretends to be infiltrates their group. 

Genre: Action
Language:English  http://www.imdb.com/title/tt1027683/
Source:720p BluRay x264-aAF

General
Complete name :Kill.Speed.2010.BRRip.H264.Feel-Free
Format : MPEG-4
Codec ID : qt
File size : 1.39 GiB
Duration : 1h 51mn
Overall bit rate : 1 783 Kbps
Video #1
Codec ID : avc1
Codec ID/Info : Advanced Video Coding
Duration : 1h 51mn
Bit rate mode : Variable
Bit rate : 1 536 Kbps
Width : 720 pixels
Height : 384 pixels
Display aspect ratio : 1.875
Frame rate mode : Constant
Frame rate : 29.970 fps
Resolution : 24 bits
Colorimetry : 4:2:0
Scan type : Progressive
Bits/(Pixel*Frame) : 0.185
Stream size : 1.20 GiB (86%)
Audio #2
ID : 2
Format : AAC
Format/Info : Advanced Audio Codec
Format version : Version 4
Format profile : LC
Format settings, SBR : No
Codec ID : 40
Duration : 1h 51mn
Bit rate mode : Variable
Bit rate : 242 Kbps
Channel(s) : 6 channels
Channel positions : Front: L C R, Rear: L R, LFE
Sampling rate : 48.0 KHz
Resolution : 16 bits
Stream size : 193 MiB (14%)